<svg width="904" height="346" version="1.1" xmlns="http://www.w3.org/2000/svg" desc="Created with imagetracer.js version 1.2.6" ><path fill="rgb(33,44,58)" stroke="rgb(33,44,58)" stroke-width="1" opacity="1" d="M 3.5 2 L 904 2 L 904 344 L 3.5 344 L 2 342.5 L 2 3.5 L 3.5 2 Z M 69 75 L 66 76 L 67 79 L 67 81 L 69 81 L 71 85 L 73 85 L 73 87 L 75 87 L 75 89 L 77 89 L 77 91 L 79 91 L 79 93 L 81 93 L 81 95 L 83 95 L 83 97 L 85 97 L 85 99 L 87 99 L 87 101 L 89 101 L 89 103 L 91 103 L 91 105 L 93 105 L 93 107 L 95 107 L 95 109 L 100 111 L 136 111 L 136 112 L 136 250 L 138 251 L 170 251 L 171 250 L 171 111 L 239 111 L 241 110 L 242 108 Q 243 102 239 101 Q 240 98 237 99 L 237 97 L 235 97 L 235 95 L 233 95 L 233 93 L 231 93 L 231 91 L 229 91 L 229 89 L 227 89 L 227 87 L 225 87 L 225 85 L 223 85 L 223 83 L 221 83 L 221 81 L 219 81 L 219 79 L 217 79 L 217 77 L 214 75 L 69 75 Z M 314 75 L 295 91 Q 292 90 293 93 L 281 103 Q 278 102 279 105 L 269 113 Q 266 112 267 115 L 257 123 L 257 218 L 291 251 L 398 251 L 408 241 Q 410 242 409 239 L 411 239 L 411 237 L 413 237 L 413 235 L 415 235 L 431 220 L 430 218 L 430 216 L 293 216 L 291 215 L 291 111 L 395 111 Q 405 106 412 97 Q 414 98 413 95 L 415 95 L 415 93 L 424 87 L 431 80 L 431 77 L 430 75 L 314 75 Z M 489 75 Q 481 78 477 85 Q 474 84 475 87 L 473 87 L 473 89 L 465 95 L 454 107 L 454 250 L 456 251 L 488 251 L 489 250 L 489 181 L 560 181 L 563 179 Q 562 176 565 177 L 565 175 L 567 175 L 567 173 L 569 173 L 569 171 L 571 171 L 571 170 L 589 152 L 591 146 L 589 145 L 489 145 L 489 111 L 584 111 L 588 109 L 613 83 Q 612 80 615 81 L 616 76 L 614 75 L 489 75 Z M 621 75 L 619 77 L 619 80 L 627 90 L 630 91 L 633 99 L 698 186 L 698 250 L 700 251 L 732 251 L 733 250 L 733 185 L 811 81 L 812 77 L 811 75 L 774 75 L 761 90 Q 762 92 759 91 L 757 96 L 719 144 L 716 147 L 711 143 Q 712 140 709 141 L 707 137 L 681 105 Q 682 102 679 103 L 677 99 L 661 79 L 658 75 L 621 75 Z " /><path fill="rgb(71,79,91)" stroke="rgb(71,79,91)" stroke-width="1" opacity="1" d="M 3.5 1 L 904 1.5 L 3.5 2 L 2 3.5 L 2 342.5 L 3.5 344 L 904 344.5 L 3.5 345 L 1 342.5 L 1 3.5 L 3.5 1 Z " /><path fill="rgb(71,79,91)" stroke="rgb(71,79,91)" stroke-width="1" opacity="1" d="M 68.5 75 L 213.5 75 L 215 76.5 L 213.5 76 L 68.5 76 L 68.5 75 Z " /><path fill="rgb(71,79,91)" stroke="rgb(71,79,91)" stroke-width="1" opacity="1" d="M 313.5 75 L 429.5 75 L 431 76.5 L 429.5 76 L 313.5 76 L 312.5 77 L 313.5 75 Z " /><path fill="rgb(71,79,91)" stroke="rgb(71,79,91)" stroke-width="1" opacity="1" d="M 488.5 75 L 614 75.5 L 488.5 76 L 488.5 75 Z " /><path fill="rgb(71,79,91)" stroke="rgb(71,79,91)" stroke-width="1" opacity="1" d="M 620.5 75 L 657.5 75 L 661 78.5 L 657.5 76 L 620.5 76 L 620 79.5 L 622.5 83 Q 618.3 82.3 619 76.5 L 620.5 75 Z " /><path fill="rgb(71,79,91)" stroke="rgb(71,79,91)" stroke-width="1" opacity="1" d="M 773.5 75 L 810.5 75 L 812 76.5 L 810.5 76 L 773.5 76 L 773.5 75 Z " /><path fill="rgb(71,79,91)" stroke="rgb(71,79,91)" stroke-width="1" opacity="1" d="M 486.5 76 L 485.5 78 L 475.5 86 L 475.5 85 L 486.5 76 Z " /><path fill="rgb(71,79,91)" stroke="rgb(71,79,91)" stroke-width="1" opacity="1" d="M 310.5 77 L 307.5 81 L 310.5 77 Z " /><path fill="rgb(71,79,91)" stroke="rgb(71,79,91)" stroke-width="1" opacity="1" d="M 771.5 77 L 767.5 82 L 771.5 77 Z " /><path fill="rgb(71,79,91)" stroke="rgb(71,79,91)" stroke-width="1" opacity="1" d="M 811.5 78 L 811 79.5 L 807.5 84 L 810 80.5 L 811.5 78 Z " /><path fill="rgb(71,79,91)" stroke="rgb(71,79,91)" stroke-width="1" opacity="1" d="M 430.5 79 L 423.5 87 L 430.5 79 Z " /><path fill="rgb(71,79,91)" stroke="rgb(71,79,91)" stroke-width="1" opacity="1" d="M 661.5 80 L 664.5 84 L 661.5 80 Z " /><path fill="rgb(71,79,91)" stroke="rgb(71,79,91)" stroke-width="1" opacity="1" d="M 305.5 81 L 301.5 86 L 305.5 81 Z " /><path fill="rgb(71,79,91)" stroke="rgb(71,79,91)" stroke-width="1" opacity="1" d="M 612.5 82 L 601.5 94 L 612.5 82 Z " /><path fill="rgb(71,79,91)" stroke="rgb(71,79,91)" stroke-width="1" opacity="1" d="M 766.5 83 L 764 86.5 L 761.5 90 L 763 87.5 L 766.5 83 Z " /><path fill="rgb(71,79,91)" stroke="rgb(71,79,91)" stroke-width="1" opacity="1" d="M 623.5 84 L 626.5 88 L 623.5 84 Z " /><path fill="rgb(71,79,91)" stroke="rgb(71,79,91)" stroke-width="1" opacity="1" d="M 665.5 85 L 668.5 89 L 665.5 85 Z " /><path fill="rgb(71,79,91)" stroke="rgb(71,79,91)" stroke-width="1" opacity="1" d="M 806.5 85 L 805 87.5 L 802.5 91 L 804 88.5 L 806.5 85 Z " /><path fill="rgb(71,79,91)" stroke="rgb(71,79,91)" stroke-width="1" opacity="1" d="M 298.5 87 L 294.5 92 L 293 91.5 L 298.5 87 Z " /><path fill="rgb(71,79,91)" stroke="rgb(71,79,91)" stroke-width="1" opacity="1" d="M 420.5 88 L 416.5 93 L 420.5 88 Z " /><path fill="rgb(71,79,91)" stroke="rgb(71,79,91)" stroke-width="1" opacity="1" d="M 471.5 89 L 467.5 94 L 471.5 89 Z " /><path fill="rgb(71,79,91)" stroke="rgb(71,79,91)" stroke-width="1" opacity="1" d="M 627.5 89 L 628.5 91 L 627.5 89 Z " /><path fill="rgb(71,79,91)" stroke="rgb(71,79,91)" stroke-width="1" opacity="1" d="M 669.5 90 L 679 101.5 L 676 99.5 L 669.5 90 Z " /><path fill="rgb(71,79,91)" stroke="rgb(71,79,91)" stroke-width="1" opacity="1" d="M 759.5 91 L 760 92.5 L 757 94.5 L 759.5 91 Z " /><path fill="rgb(71,79,91)" stroke="rgb(71,79,91)" stroke-width="1" opacity="1" d="M 291.5 93 L 288.5 97 L 291.5 93 Z " /><path fill="rgb(71,79,91)" stroke="rgb(71,79,91)" stroke-width="1" opacity="1" d="M 631.5 93 L 633 96.5 L 631 95.5 L 631.5 93 Z " /><path fill="rgb(71,79,91)" stroke="rgb(71,79,91)" stroke-width="1" opacity="1" d="M 800.5 93 L 799.5 95 L 800.5 93 Z " /><path fill="rgb(71,79,91)" stroke="rgb(71,79,91)" stroke-width="1" opacity="1" d="M 464.5 95 L 458.5 102 L 464.5 95 Z " /><path fill="rgb(71,79,91)" stroke="rgb(71,79,91)" stroke-width="1" opacity="1" d="M 600.5 95 L 587.5 109 L 600.5 95 Z " /><path fill="rgb(71,79,91)" stroke="rgb(71,79,91)" stroke-width="1" opacity="1" d="M 411.5 96 L 413 96.5 L 398.5 109 L 402.5 104 L 411.5 96 Z " /><path fill="rgb(71,79,91)" stroke="rgb(71,79,91)" stroke-width="1" opacity="1" d="M 798.5 96 L 796.5 99 L 798.5 96 Z " /><path fill="rgb(71,79,91)" stroke="rgb(71,79,91)" stroke-width="1" opacity="1" d="M 286.5 97 L 281.5 103 L 286.5 97 Z " /><path fill="rgb(71,79,91)" stroke="rgb(71,79,91)" stroke-width="1" opacity="1" d="M 755.5 97 L 753.5 100 L 755.5 97 Z " /><path fill="rgb(71,79,91)" stroke="rgb(71,79,91)" stroke-width="1" opacity="1" d="M 633.5 98 L 635.5 101 L 633.5 98 Z " /><path fill="rgb(71,79,91)" stroke="rgb(71,79,91)" stroke-width="1" opacity="1" d="M 795.5 100 L 793.5 103 L 795.5 100 Z " /><path fill="rgb(71,79,91)" stroke="rgb(71,79,91)" stroke-width="1" opacity="1" d="M 751.5 102 L 749.5 105 L 751.5 102 Z " /><path fill="rgb(71,79,91)" stroke="rgb(71,79,91)" stroke-width="1" opacity="1" d="M 637.5 103 L 638.5 105 L 637.5 103 Z " /><path fill="rgb(71,79,91)" stroke="rgb(71,79,91)" stroke-width="1" opacity="1" d="M 680.5 103 L 683 106.5 L 680 104.5 L 680.5 103 Z " /><path fill="rgb(71,79,91)" stroke="rgb(71,79,91)" stroke-width="1" opacity="1" d="M 241.5 104 L 242 107.5 L 240.5 110 L 240 108.5 L 241.5 104 Z " /><path fill="rgb(71,79,91)" stroke="rgb(71,79,91)" stroke-width="1" opacity="1" d="M 792.5 104 L 791 106.5 L 788.5 110 L 790 107.5 L 792.5 104 Z " /><path fill="rgb(71,79,91)" stroke="rgb(71,79,91)" stroke-width="1" opacity="1" d="M 277.5 105 L 275.5 108 L 277.5 105 Z " /><path fill="rgb(71,79,91)" stroke="rgb(71,79,91)" stroke-width="1" opacity="1" d="M 454.5 106 L 455 250 L 457 250.5 L 455.5 251 L 454 249.5 L 454.5 106 Z " /><path fill="rgb(71,79,91)" stroke="rgb(71,79,91)" stroke-width="1" opacity="1" d="M 639.5 106 L 645 112.5 L 641 109.5 L 639.5 106 Z " /><path fill="rgb(71,79,91)" stroke="rgb(71,79,91)" stroke-width="1" opacity="1" d="M 748.5 106 L 745.5 110 L 748.5 106 Z " /><path fill="rgb(71,79,91)" stroke="rgb(71,79,91)" stroke-width="1" opacity="1" d="M 95.5 108 L 99.5 110 L 135.5 110 L 137 111.5 L 137 249.5 L 138.5 250 L 138.5 251 L 136 249.5 L 136 111.5 L 135.5 111 L 99.5 111 L 95.5 109 L 95.5 108 Z " /><path fill="rgb(71,79,91)" stroke="rgb(71,79,91)" stroke-width="1" opacity="1" d="M 272.5 109 L 268.5 114 L 267 113.5 L 272.5 109 Z " /><path fill="rgb(71,79,91)" stroke="rgb(71,79,91)" stroke-width="1" opacity="1" d="M 395.5 109 L 397 109.5 L 394.5 111 L 291.5 111 L 291.5 110 L 394.5 110 L 395.5 109 Z " /><path fill="rgb(71,79,91)" stroke="rgb(71,79,91)" stroke-width="1" opacity="1" d="M 684.5 109 L 686.5 112 L 684.5 109 Z " /><path fill="rgb(71,79,91)" stroke="rgb(71,79,91)" stroke-width="1" opacity="1" d="M 171.5 110 L 239 110.5 L 171.5 111 L 171.5 110 Z " /><path fill="rgb(71,79,91)" stroke="rgb(71,79,91)" stroke-width="1" opacity="1" d="M 489.5 110 L 584 110.5 L 489.5 111 L 489.5 110 Z " /><path fill="rgb(71,79,91)" stroke="rgb(71,79,91)" stroke-width="1" opacity="1" d="M 744.5 111 L 741.5 115 L 744.5 111 Z " /><path fill="rgb(71,79,91)" stroke="rgb(71,79,91)" stroke-width="1" opacity="1" d="M 786.5 112 L 785.5 114 L 786.5 112 Z " /><path fill="rgb(71,79,91)" stroke="rgb(71,79,91)" stroke-width="1" opacity="1" d="M 645.5 114 L 646.5 116 L 645.5 114 Z " /><path fill="rgb(71,79,91)" stroke="rgb(71,79,91)" stroke-width="1" opacity="1" d="M 688.5 114 L 690.5 117 L 688.5 114 Z " /><path fill="rgb(71,79,91)" stroke="rgb(71,79,91)" stroke-width="1" opacity="1" d="M 265.5 115 L 262.5 119 L 265.5 115 Z " /><path fill="rgb(71,79,91)" stroke="rgb(71,79,91)" stroke-width="1" opacity="1" d="M 784.5 115 L 782.5 118 L 784.5 115 Z " /><path fill="rgb(71,79,91)" stroke="rgb(71,79,91)" stroke-width="1" opacity="1" d="M 740.5 116 L 738 119.5 L 731.5 128 L 733 125.5 L 740.5 116 Z " /><path fill="rgb(71,79,91)" stroke="rgb(71,79,91)" stroke-width="1" opacity="1" d="M 647.5 117 L 649.5 120 L 647.5 117 Z " /><path fill="rgb(71,79,91)" stroke="rgb(71,79,91)" stroke-width="1" opacity="1" d="M 691.5 118 L 694.5 122 L 691.5 118 Z " /><path fill="rgb(71,79,91)" stroke="rgb(71,79,91)" stroke-width="1" opacity="1" d="M 260.5 119 L 259.5 121 L 260.5 119 Z " /><path fill="rgb(71,79,91)" stroke="rgb(71,79,91)" stroke-width="1" opacity="1" d="M 780.5 120 L 779.5 122 L 780.5 120 Z " /><path fill="rgb(71,79,91)" stroke="rgb(71,79,91)" stroke-width="1" opacity="1" d="M 651.5 122 L 652.5 124 L 651.5 122 Z " /><path fill="rgb(71,79,91)" stroke="rgb(71,79,91)" stroke-width="1" opacity="1" d="M 695.5 123 L 698.5 127 L 695.5 123 Z " /><path fill="rgb(71,79,91)" stroke="rgb(71,79,91)" stroke-width="1" opacity="1" d="M 778.5 123 L 777 125.5 L 773.5 130 L 776 126.5 L 778.5 123 Z " /><path fill="rgb(71,79,91)" stroke="rgb(71,79,91)" stroke-width="1" opacity="1" d="M 653.5 125 L 659 131.5 L 655 128.5 L 653.5 125 Z " /><path fill="rgb(71,79,91)" stroke="rgb(71,79,91)" stroke-width="1" opacity="1" d="M 699.5 128 L 702.5 132 L 699.5 128 Z " /><path fill="rgb(71,79,91)" stroke="rgb(71,79,91)" stroke-width="1" opacity="1" d="M 729.5 130 L 727.5 133 L 729.5 130 Z " /><path fill="rgb(71,79,91)" stroke="rgb(71,79,91)" stroke-width="1" opacity="1" d="M 772.5 131 L 771.5 133 L 772.5 131 Z " /><path fill="rgb(71,79,91)" stroke="rgb(71,79,91)" stroke-width="1" opacity="1" d="M 659.5 133 L 665 139.5 L 661 136.5 L 659.5 133 Z " /><path fill="rgb(71,79,91)" stroke="rgb(71,79,91)" stroke-width="1" opacity="1" d="M 703.5 133 L 706.5 137 L 703.5 133 Z " /><path fill="rgb(71,79,91)" stroke="rgb(71,79,91)" stroke-width="1" opacity="1" d="M 726.5 134 L 723.5 138 L 726.5 134 Z " /><path fill="rgb(71,79,91)" stroke="rgb(71,79,91)" stroke-width="1" opacity="1" d="M 770.5 134 L 768.5 137 L 770.5 134 Z " /><path fill="rgb(71,79,91)" stroke="rgb(71,79,91)" stroke-width="1" opacity="1" d="M 707.5 138 L 708.5 140 L 707.5 138 Z " /><path fill="rgb(71,79,91)" stroke="rgb(71,79,91)" stroke-width="1" opacity="1" d="M 722.5 139 L 719.5 143 L 722.5 139 Z " /><path fill="rgb(71,79,91)" stroke="rgb(71,79,91)" stroke-width="1" opacity="1" d="M 766.5 139 L 765.5 141 L 766.5 139 Z " /><path fill="rgb(71,79,91)" stroke="rgb(71,79,91)" stroke-width="1" opacity="1" d="M 665.5 141 L 666.5 143 L 665.5 141 Z " /><path fill="rgb(71,79,91)" stroke="rgb(71,79,91)" stroke-width="1" opacity="1" d="M 710.5 141 L 715.5 147 L 719 144.5 L 715.5 148 L 710 142.5 L 710.5 141 Z " /><path fill="rgb(71,79,91)" stroke="rgb(71,79,91)" stroke-width="1" opacity="1" d="M 764.5 142 L 763 144.5 L 759.5 149 L 762 145.5 L 764.5 142 Z " /><path fill="rgb(71,79,91)" stroke="rgb(71,79,91)" stroke-width="1" opacity="1" d="M 667.5 144 L 669.5 147 L 667.5 144 Z " /><path fill="rgb(71,79,91)" stroke="rgb(71,79,91)" stroke-width="1" opacity="1" d="M 489.5 145 L 589 145.5 L 489.5 146 L 489.5 145 Z " /><path fill="rgb(71,79,91)" stroke="rgb(71,79,91)" stroke-width="1" opacity="1" d="M 590.5 146 L 591 148.5 L 590 148.5 L 590.5 146 Z " /><path fill="rgb(71,79,91)" stroke="rgb(71,79,91)" stroke-width="1" opacity="1" d="M 671.5 149 L 672.5 151 L 671.5 149 Z " /><path fill="rgb(71,79,91)" stroke="rgb(71,79,91)" stroke-width="1" opacity="1" d="M 758.5 150 L 757.5 152 L 758.5 150 Z " /><path fill="rgb(71,79,91)" stroke="rgb(71,79,91)" stroke-width="1" opacity="1" d="M 588.5 151 L 571.5 169 L 588.5 151 Z " /><path fill="rgb(71,79,91)" stroke="rgb(71,79,91)" stroke-width="1" opacity="1" d="M 673.5 152 L 675.5 155 L 673.5 152 Z " /><path fill="rgb(71,79,91)" stroke="rgb(71,79,91)" stroke-width="1" opacity="1" d="M 756.5 153 L 754.5 156 L 756.5 153 Z " /><path fill="rgb(71,79,91)" stroke="rgb(71,79,91)" stroke-width="1" opacity="1" d="M 677.5 157 L 678.5 159 L 677.5 157 Z " /><path fill="rgb(71,79,91)" stroke="rgb(71,79,91)" stroke-width="1" opacity="1" d="M 752.5 158 L 751.5 160 L 752.5 158 Z " /><path fill="rgb(71,79,91)" stroke="rgb(71,79,91)" stroke-width="1" opacity="1" d="M 679.5 160 L 685 166.5 L 681 163.5 L 679.5 160 Z " /><path fill="rgb(71,79,91)" stroke="rgb(71,79,91)" stroke-width="1" opacity="1" d="M 750.5 161 L 749 163.5 L 745.5 168 L 748 164.5 L 750.5 161 Z " /><path fill="rgb(71,79,91)" stroke="rgb(71,79,91)" stroke-width="1" opacity="1" d="M 685.5 168 L 686.5 170 L 685.5 168 Z " /><path fill="rgb(71,79,91)" stroke="rgb(71,79,91)" stroke-width="1" opacity="1" d="M 744.5 169 L 743 171.5 L 740.5 175 L 742 172.5 L 744.5 169 Z " /><path fill="rgb(71,79,91)" stroke="rgb(71,79,91)" stroke-width="1" opacity="1" d="M 687.5 171 L 689.5 174 L 687.5 171 Z " /><path fill="rgb(71,79,91)" stroke="rgb(71,79,91)" stroke-width="1" opacity="1" d="M 691.5 176 L 692.5 178 L 691.5 176 Z " /><path fill="rgb(71,79,91)" stroke="rgb(71,79,91)" stroke-width="1" opacity="1" d="M 738.5 177 L 737.5 179 L 738.5 177 Z " /><path fill="rgb(71,79,91)" stroke="rgb(71,79,91)" stroke-width="1" opacity="1" d="M 562.5 178 L 561.5 180 L 559.5 181 L 489.5 181 L 489.5 180 L 559.5 180 L 562.5 178 Z " /><path fill="rgb(71,79,91)" stroke="rgb(71,79,91)" stroke-width="1" opacity="1" d="M 693.5 179 L 698 184.5 L 695 182.5 L 693.5 179 Z " /><path fill="rgb(71,79,91)" stroke="rgb(71,79,91)" stroke-width="1" opacity="1" d="M 736.5 180 L 734.5 183 L 736.5 180 Z " /><path fill="rgb(71,79,91)" stroke="rgb(71,79,91)" stroke-width="1" opacity="1" d="M 732.5 185 L 733 249.5 L 730.5 251 L 730.5 250 L 732 249.5 L 732.5 185 Z " /><path fill="rgb(71,79,91)" stroke="rgb(71,79,91)" stroke-width="1" opacity="1" d="M 698.5 186 L 699 250 L 701 250.5 L 699.5 251 L 698 249.5 L 698.5 186 Z " /><path fill="rgb(71,79,91)" stroke="rgb(71,79,91)" stroke-width="1" opacity="1" d="M 291.5 215 L 292.5 216 L 430 216 L 431 219.5 L 425 224.5 L 430 218.5 L 428.5 217 L 292.5 217 L 291.5 215 Z " /><path fill="rgb(71,79,91)" stroke="rgb(71,79,91)" stroke-width="1" opacity="1" d="M 257.5 216 L 290.5 250 L 292 250.5 L 290.5 251 L 257 217.5 L 257.5 216 Z " /><path fill="rgb(71,79,91)" stroke="rgb(71,79,91)" stroke-width="1" opacity="1" d="M 423.5 225 L 414.5 235 L 423.5 225 Z " /><path fill="rgb(71,79,91)" stroke="rgb(71,79,91)" stroke-width="1" opacity="1" d="M 406.5 241 L 397.5 251 L 396 250.5 L 406.5 241 Z " /><path fill="rgb(71,79,91)" stroke="rgb(71,79,91)" stroke-width="1" opacity="1" d="M 170.5 249 L 169.5 251 L 170.5 249 Z " /><path fill="rgb(71,79,91)" stroke="rgb(71,79,91)" stroke-width="1" opacity="1" d="M 488.5 249 L 487.5 251 L 488.5 249 Z " /><path fill="rgb(142,143,151)" stroke="rgb(142,143,151)" stroke-width="1" opacity="1" d="M 0 0 L 2 0.5 L 0 1.5 L 0 0 Z " /><path fill="rgb(142,143,151)" stroke="rgb(142,143,151)" stroke-width="1" opacity="1" d="M 68 76 L 212.5 76 L 240 102.5 L 239.5 104 L 214.5 78 L 69.5 78 L 69 79.5 L 98.5 108 L 138 108 L 138 248.5 L 139 249.5 L 137 248.5 L 137 110.5 L 135.5 109 L 98.5 109 L 68 79.5 L 68 76 Z " /><path fill="rgb(142,143,151)" stroke="rgb(142,143,151)" stroke-width="1" opacity="1" d="M 314.5 76 L 429.5 76 L 430 79.5 L 408 98 Q 409.1 100.7 406.5 100 L 397.5 108 L 402.5 102 L 405.5 100 L 420.5 86 L 422 86 Q 420.9 83.3 423.5 84 L 428.5 78 L 312.5 78 L 274 110 Q 275.1 112.7 272.5 112 L 261.5 122 L 258.5 123 L 259.5 121 L 310 80 Q 308.9 77.3 311.5 78 L 314.5 76 Z " /><path fill="rgb(142,143,151)" stroke="rgb(142,143,151)" stroke-width="1" opacity="1" d="M 488.5 76 L 613.5 76 L 614 79.5 L 590 104.5 L 590 106 L 588 106 Q 589.1 108.7 586.5 108 L 585.5 109 L 489.5 109 L 488.5 110 L 488 108 L 585.5 108 L 592 101.5 L 598 94.5 L 613 79.5 L 613 78 L 487.5 78 L 484 80 Q 485.1 82.7 482.5 82 L 467.5 96 L 466 96 Q 467.1 98.7 464.5 98 L 457 104 L 456.5 106 L 456 104.5 L 478.5 84 L 480 84 Q 478.9 81.3 481.5 82 L 488.5 76 Z " /><path fill="rgb(142,143,151)" stroke="rgb(142,143,151)" stroke-width="1" opacity="1" d="M 620 76 L 656.5 76 L 662 81.5 L 688 116 Q 690.7 114.9 690 117.5 L 714.5 148 L 718 146.5 L 728 132 Q 730.7 133.1 730 130.5 L 772.5 77 L 774.5 76 L 809.5 76 Q 812.3 77.3 810 78.5 L 748.5 162 L 749 160.5 L 809 78 L 773.5 78 L 768 83.5 L 715.5 150 L 712 147.5 L 657.5 78 L 622.5 78 L 622 79.5 L 632 90.5 L 634 96.5 L 656 125.5 L 652 122.5 L 632 95.5 L 632 92.5 L 622 81.5 L 620 76 Z " /><path fill="rgb(142,143,151)" stroke="rgb(142,143,151)" stroke-width="1" opacity="1" d="M 240.5 105 L 241 106.5 L 240 109 L 171.5 109 L 170.5 110 L 170 108 L 238.5 108 L 240 106.5 L 240.5 105 Z " /><path fill="rgb(142,143,151)" stroke="rgb(142,143,151)" stroke-width="1" opacity="1" d="M 455.5 107 L 456 248.5 L 457 249.5 L 455 248.5 L 455.5 107 Z " /><path fill="rgb(142,143,151)" stroke="rgb(142,143,151)" stroke-width="1" opacity="1" d="M 291.5 108 L 396 108.5 L 292.5 109 L 290.5 111 L 290 109.5 L 291.5 108 Z " /><path fill="rgb(142,143,151)" stroke="rgb(142,143,151)" stroke-width="1" opacity="1" d="M 656.5 127 L 696 179.5 L 692 176.5 L 660 133.5 L 656.5 127 Z " /><path fill="rgb(142,143,151)" stroke="rgb(142,143,151)" stroke-width="1" opacity="1" d="M 488.5 146 L 489.5 147 L 589 147 L 589 149.5 L 580 158.5 L 580 160 L 578 160 L 578 162 L 576 162 L 576 164 L 574 164 L 574 166 Q 571.3 164.9 572 167.5 L 559.5 180 L 489.5 180 L 488.5 181 L 488 179.5 L 489.5 178 L 560.5 178 L 570 168.5 L 580 156 L 582 156 L 582 154 L 584 154 L 584 152 L 586 152 L 588 148 L 488.5 148 L 488.5 146 Z " /><path fill="rgb(142,143,151)" stroke="rgb(142,143,151)" stroke-width="1" opacity="1" d="M 747.5 163 L 746 165.5 L 732 184.5 L 732 248.5 L 730.5 250 L 729 249.5 L 730 248.5 L 730 187.5 L 732 182.5 L 747.5 163 Z " /><path fill="rgb(142,143,151)" stroke="rgb(142,143,151)" stroke-width="1" opacity="1" d="M 696.5 181 L 700 184.5 L 700 248.5 L 701 249.5 L 699 248.5 L 699 185.5 L 696.5 181 Z " /><path fill="rgb(142,143,151)" stroke="rgb(142,143,151)" stroke-width="1" opacity="1" d="M 258.5 215 L 291.5 249 L 293 249.5 L 290 250 L 290 248 L 288 248 L 288 246 L 286 246 L 286 244 L 284 244 L 284 242 L 282 242 L 282 240 L 280 240 L 280 238 L 278 238 L 278 236 L 276 236 L 276 234 L 274 234 L 274 232 L 272 232 L 272 230 L 270 230 L 270 228 L 268 228 L 268 226 L 266 226 L 266 224 L 264 224 L 264 222 L 262 222 L 260 218 L 258 218 L 258.5 215 Z " /><path fill="rgb(142,143,151)" stroke="rgb(142,143,151)" stroke-width="1" opacity="1" d="M 290.5 216 L 291.5 217 L 426.5 217 L 429 218 L 422.5 226 L 405.5 242 L 404 242 L 404 244 L 402 244 L 402 246 L 400 246 Q 401.1 248.7 398.5 248 L 395.5 250 L 396.5 248 L 424.5 222 L 426 222 Q 424.9 219.3 427.5 220 L 426.5 218 L 290.5 218 L 290.5 216 Z " /><path fill="rgb(142,143,151)" stroke="rgb(142,143,151)" stroke-width="1" opacity="1" d="M 0.5 344 L 1.5 346 Q -1.3 346.7 0.5 344 Z " /><path fill="rgb(89,97,107)" stroke="rgb(89,97,107)" stroke-width="1" opacity="1" d="M 2.5 0 L 0.5 3 L 2.5 0 Z " /><path fill="rgb(89,97,107)" stroke="rgb(89,97,107)" stroke-width="1" opacity="1" d="M 67.5 76 L 68 78.5 L 67 78.5 L 67.5 76 Z " /><path fill="rgb(89,97,107)" stroke="rgb(89,97,107)" stroke-width="1" opacity="1" d="M 614.5 76 L 615 78.5 L 614 78.5 L 614.5 76 Z " /><path fill="rgb(89,97,107)" stroke="rgb(89,97,107)" stroke-width="1" opacity="1" d="M 657.5 76 L 659.5 79 L 657.5 76 Z " /><path fill="rgb(89,97,107)" stroke="rgb(89,97,107)" stroke-width="1" opacity="1" d="M 216.5 78 L 238.5 101 L 216.5 78 Z " /><path fill="rgb(89,97,107)" stroke="rgb(89,97,107)" stroke-width="1" opacity="1" d="M 484.5 78 L 481.5 82 L 484.5 78 Z " /><path fill="rgb(89,97,107)" stroke="rgb(89,97,107)" stroke-width="1" opacity="1" d="M 620.5 79 L 621.5 81 L 620.5 79 Z " /><path fill="rgb(89,97,107)" stroke="rgb(89,97,107)" stroke-width="1" opacity="1" d="M 769.5 80 L 768.5 82 L 769.5 80 Z " /><path fill="rgb(89,97,107)" stroke="rgb(89,97,107)" stroke-width="1" opacity="1" d="M 809.5 80 L 808.5 82 L 809.5 80 Z " /><path fill="rgb(89,97,107)" stroke="rgb(89,97,107)" stroke-width="1" opacity="1" d="M 69.5 81 L 94.5 107 L 69.5 81 Z " /><path fill="rgb(89,97,107)" stroke="rgb(89,97,107)" stroke-width="1" opacity="1" d="M 306.5 81 L 302.5 86 L 306.5 81 Z " /><path fill="rgb(89,97,107)" stroke="rgb(89,97,107)" stroke-width="1" opacity="1" d="M 612.5 81 L 602.5 92 L 612.5 81 Z " /><path fill="rgb(89,97,107)" stroke="rgb(89,97,107)" stroke-width="1" opacity="1" d="M 426.5 82 L 423.5 86 L 426.5 82 Z " /><path fill="rgb(89,97,107)" stroke="rgb(89,97,107)" stroke-width="1" opacity="1" d="M 662.5 82 L 663.5 84 L 662.5 82 Z " /><path fill="rgb(89,97,107)" stroke="rgb(89,97,107)" stroke-width="1" opacity="1" d="M 624.5 84 L 625.5 86 L 624.5 84 Z " /><path fill="rgb(89,97,107)" stroke="rgb(89,97,107)" stroke-width="1" opacity="1" d="M 765.5 85 L 764.5 87 L 765.5 85 Z " /><path fill="rgb(89,97,107)" stroke="rgb(89,97,107)" stroke-width="1" opacity="1" d="M 300.5 86 L 297.5 90 L 300.5 86 Z " /><path fill="rgb(89,97,107)" stroke="rgb(89,97,107)" stroke-width="1" opacity="1" d="M 474.5 87 L 468.5 94 L 474.5 87 Z " /><path fill="rgb(89,97,107)" stroke="rgb(89,97,107)" stroke-width="1" opacity="1" d="M 666.5 87 L 667.5 89 L 666.5 87 Z " /><path fill="rgb(89,97,107)" stroke="rgb(89,97,107)" stroke-width="1" opacity="1" d="M 419.5 88 L 413.5 95 L 419.5 88 Z " /><path fill="rgb(89,97,107)" stroke="rgb(89,97,107)" stroke-width="1" opacity="1" d="M 803.5 88 L 802.5 90 L 803.5 88 Z " /><path fill="rgb(89,97,107)" stroke="rgb(89,97,107)" stroke-width="1" opacity="1" d="M 762.5 89 L 760.5 92 L 762.5 89 Z " /><path fill="rgb(89,97,107)" stroke="rgb(89,97,107)" stroke-width="1" opacity="1" d="M 801.5 91 L 800.5 93 L 801.5 91 Z " /><path fill="rgb(89,97,107)" stroke="rgb(89,97,107)" stroke-width="1" opacity="1" d="M 670.5 92 L 671.5 94 L 670.5 92 Z " /><path fill="rgb(89,97,107)" stroke="rgb(89,97,107)" stroke-width="1" opacity="1" d="M 292.5 93 L 290.5 96 L 292.5 93 Z " /><path fill="rgb(89,97,107)" stroke="rgb(89,97,107)" stroke-width="1" opacity="1" d="M 599.5 95 L 590.5 105 L 599.5 95 Z " /><path fill="rgb(89,97,107)" stroke="rgb(89,97,107)" stroke-width="1" opacity="1" d="M 757.5 95 L 756.5 97 L 757.5 95 Z " /><path fill="rgb(89,97,107)" stroke="rgb(89,97,107)" stroke-width="1" opacity="1" d="M 464.5 96 L 461.5 100 L 464.5 96 Z " /><path fill="rgb(89,97,107)" stroke="rgb(89,97,107)" stroke-width="1" opacity="1" d="M 797.5 96 L 796.5 98 L 797.5 96 Z " /><path fill="rgb(89,97,107)" stroke="rgb(89,97,107)" stroke-width="1" opacity="1" d="M 674.5 97 L 675.5 99 L 674.5 97 Z " /><path fill="rgb(89,97,107)" stroke="rgb(89,97,107)" stroke-width="1" opacity="1" d="M 286.5 98 L 283.5 102 L 286.5 98 Z " /><path fill="rgb(89,97,107)" stroke="rgb(89,97,107)" stroke-width="1" opacity="1" d="M 634.5 98 L 635.5 100 L 634.5 98 Z " /><path fill="rgb(89,97,107)" stroke="rgb(89,97,107)" stroke-width="1" opacity="1" d="M 755.5 98 L 753.5 101 L 755.5 98 Z " /><path fill="rgb(89,97,107)" stroke="rgb(89,97,107)" stroke-width="1" opacity="1" d="M 795.5 99 L 794.5 101 L 795.5 99 Z " /><path fill="rgb(89,97,107)" stroke="rgb(89,97,107)" stroke-width="1" opacity="1" d="M 406.5 100 L 403.5 104 L 406.5 100 Z " /><path fill="rgb(89,97,107)" stroke="rgb(89,97,107)" stroke-width="1" opacity="1" d="M 636.5 101 L 637.5 103 L 636.5 101 Z " /><path fill="rgb(89,97,107)" stroke="rgb(89,97,107)" stroke-width="1" opacity="1" d="M 677.5 101 L 679.5 104 L 677.5 101 Z " /><path fill="rgb(89,97,107)" stroke="rgb(89,97,107)" stroke-width="1" opacity="1" d="M 280.5 103 L 276.5 108 L 280.5 103 Z " /><path fill="rgb(89,97,107)" stroke="rgb(89,97,107)" stroke-width="1" opacity="1" d="M 751.5 103 L 750.5 105 L 751.5 103 Z " /><path fill="rgb(89,97,107)" stroke="rgb(89,97,107)" stroke-width="1" opacity="1" d="M 792.5 103 L 791.5 105 L 792.5 103 Z " /><path fill="rgb(89,97,107)" stroke="rgb(89,97,107)" stroke-width="1" opacity="1" d="M 400.5 105 L 398.5 108 L 400.5 105 Z " /><path fill="rgb(89,97,107)" stroke="rgb(89,97,107)" stroke-width="1" opacity="1" d="M 639.5 105 L 640.5 107 L 639.5 105 Z " /><path fill="rgb(89,97,107)" stroke="rgb(89,97,107)" stroke-width="1" opacity="1" d="M 682.5 107 L 683.5 109 L 682.5 107 Z " /><path fill="rgb(89,97,107)" stroke="rgb(89,97,107)" stroke-width="1" opacity="1" d="M 789.5 107 L 788.5 109 L 789.5 107 Z " /><path fill="rgb(89,97,107)" stroke="rgb(89,97,107)" stroke-width="1" opacity="1" d="M 747.5 108 L 746.5 110 L 747.5 108 Z " /><path fill="rgb(89,97,107)" stroke="rgb(89,97,107)" stroke-width="1" opacity="1" d="M 99.5 109 L 136 109.5 L 99.5 110 L 99.5 109 Z " /><path fill="rgb(89,97,107)" stroke="rgb(89,97,107)" stroke-width="1" opacity="1" d="M 171.5 109 L 239 109.5 L 171 110 L 170.5 249 L 170 110.5 L 171.5 109 Z " /><path fill="rgb(89,97,107)" stroke="rgb(89,97,107)" stroke-width="1" opacity="1" d="M 292.5 109 L 395 109.5 L 292.5 110 L 292.5 109 Z " /><path fill="rgb(89,97,107)" stroke="rgb(89,97,107)" stroke-width="1" opacity="1" d="M 489.5 109 L 584 109.5 L 489 110 L 489 146 L 588.5 146 L 590 149.5 L 589 149.5 L 588.5 147 L 489.5 147 L 488 145.5 L 488 110.5 L 489.5 109 Z " /><path fill="rgb(89,97,107)" stroke="rgb(89,97,107)" stroke-width="1" opacity="1" d="M 642.5 109 L 643.5 111 L 642.5 109 Z " /><path fill="rgb(89,97,107)" stroke="rgb(89,97,107)" stroke-width="1" opacity="1" d="M 272.5 110 L 271.5 112 L 272.5 110 Z " /><path fill="rgb(89,97,107)" stroke="rgb(89,97,107)" stroke-width="1" opacity="1" d="M 684.5 110 L 686.5 113 L 684.5 110 Z " /><path fill="rgb(89,97,107)" stroke="rgb(89,97,107)" stroke-width="1" opacity="1" d="M 290.5 111 L 291 215.5 L 292 216.5 L 290 215.5 L 290.5 111 Z " /><path fill="rgb(89,97,107)" stroke="rgb(89,97,107)" stroke-width="1" opacity="1" d="M 743.5 113 L 742.5 115 L 743.5 113 Z " /><path fill="rgb(89,97,107)" stroke="rgb(89,97,107)" stroke-width="1" opacity="1" d="M 266.5 115 L 264.5 118 L 266.5 115 Z " /><path fill="rgb(89,97,107)" stroke="rgb(89,97,107)" stroke-width="1" opacity="1" d="M 783.5 115 L 782.5 117 L 783.5 115 Z " /><path fill="rgb(89,97,107)" stroke="rgb(89,97,107)" stroke-width="1" opacity="1" d="M 648.5 117 L 649.5 119 L 648.5 117 Z " /><path fill="rgb(89,97,107)" stroke="rgb(89,97,107)" stroke-width="1" opacity="1" d="M 739.5 118 L 738.5 120 L 739.5 118 Z " /><path fill="rgb(89,97,107)" stroke="rgb(89,97,107)" stroke-width="1" opacity="1" d="M 692.5 120 L 694.5 123 L 692.5 120 Z " /><path fill="rgb(89,97,107)" stroke="rgb(89,97,107)" stroke-width="1" opacity="1" d="M 257.5 123 L 258 214.5 L 257 214.5 L 257.5 123 Z " /><path fill="rgb(89,97,107)" stroke="rgb(89,97,107)" stroke-width="1" opacity="1" d="M 735.5 123 L 734.5 125 L 735.5 123 Z " /><path fill="rgb(89,97,107)" stroke="rgb(89,97,107)" stroke-width="1" opacity="1" d="M 654.5 125 L 655.5 127 L 654.5 125 Z " /><path fill="rgb(89,97,107)" stroke="rgb(89,97,107)" stroke-width="1" opacity="1" d="M 696.5 125 L 697.5 127 L 696.5 125 Z " /><path fill="rgb(89,97,107)" stroke="rgb(89,97,107)" stroke-width="1" opacity="1" d="M 775.5 126 L 774.5 128 L 775.5 126 Z " /><path fill="rgb(89,97,107)" stroke="rgb(89,97,107)" stroke-width="1" opacity="1" d="M 732.5 127 L 731.5 129 L 732.5 127 Z " /><path fill="rgb(89,97,107)" stroke="rgb(89,97,107)" stroke-width="1" opacity="1" d="M 656.5 128 L 657.5 130 L 656.5 128 Z " /><path fill="rgb(89,97,107)" stroke="rgb(89,97,107)" stroke-width="1" opacity="1" d="M 700.5 130 L 701.5 132 L 700.5 130 Z " /><path fill="rgb(89,97,107)" stroke="rgb(89,97,107)" stroke-width="1" opacity="1" d="M 769.5 134 L 768.5 136 L 769.5 134 Z " /><path fill="rgb(89,97,107)" stroke="rgb(89,97,107)" stroke-width="1" opacity="1" d="M 704.5 135 L 705.5 137 L 704.5 135 Z " /><path fill="rgb(89,97,107)" stroke="rgb(89,97,107)" stroke-width="1" opacity="1" d="M 662.5 136 L 663.5 138 L 662.5 136 Z " /><path fill="rgb(89,97,107)" stroke="rgb(89,97,107)" stroke-width="1" opacity="1" d="M 725.5 136 L 723.5 139 L 725.5 136 Z " /><path fill="rgb(89,97,107)" stroke="rgb(89,97,107)" stroke-width="1" opacity="1" d="M 767.5 137 L 766.5 139 L 767.5 137 Z " /><path fill="rgb(89,97,107)" stroke="rgb(89,97,107)" stroke-width="1" opacity="1" d="M 708.5 140 L 709.5 142 L 708.5 140 Z " /><path fill="rgb(89,97,107)" stroke="rgb(89,97,107)" stroke-width="1" opacity="1" d="M 721.5 141 L 720.5 143 L 721.5 141 Z " /><path fill="rgb(89,97,107)" stroke="rgb(89,97,107)" stroke-width="1" opacity="1" d="M 668.5 144 L 669.5 146 L 668.5 144 Z " /><path fill="rgb(89,97,107)" stroke="rgb(89,97,107)" stroke-width="1" opacity="1" d="M 712.5 145 L 713.5 147 L 712.5 145 Z " /><path fill="rgb(89,97,107)" stroke="rgb(89,97,107)" stroke-width="1" opacity="1" d="M 761.5 145 L 760.5 147 L 761.5 145 Z " /><path fill="rgb(89,97,107)" stroke="rgb(89,97,107)" stroke-width="1" opacity="1" d="M 717.5 146 L 716.5 148 L 717.5 146 Z " /><path fill="rgb(89,97,107)" stroke="rgb(89,97,107)" stroke-width="1" opacity="1" d="M 670.5 147 L 671.5 149 L 670.5 147 Z " /><path fill="rgb(89,97,107)" stroke="rgb(89,97,107)" stroke-width="1" opacity="1" d="M 758.5 149 L 757.5 151 L 758.5 149 Z " /><path fill="rgb(89,97,107)" stroke="rgb(89,97,107)" stroke-width="1" opacity="1" d="M 587.5 151 L 580.5 159 L 587.5 151 Z " /><path fill="rgb(89,97,107)" stroke="rgb(89,97,107)" stroke-width="1" opacity="1" d="M 674.5 152 L 675.5 154 L 674.5 152 Z " /><path fill="rgb(89,97,107)" stroke="rgb(89,97,107)" stroke-width="1" opacity="1" d="M 755.5 153 L 754.5 155 L 755.5 153 Z " /><path fill="rgb(89,97,107)" stroke="rgb(89,97,107)" stroke-width="1" opacity="1" d="M 676.5 155 L 677.5 157 L 676.5 155 Z " /><path fill="rgb(89,97,107)" stroke="rgb(89,97,107)" stroke-width="1" opacity="1" d="M 679.5 159 L 680.5 161 L 679.5 159 Z " /><path fill="rgb(89,97,107)" stroke="rgb(89,97,107)" stroke-width="1" opacity="1" d="M 749.5 161 L 748.5 163 L 749.5 161 Z " /><path fill="rgb(89,97,107)" stroke="rgb(89,97,107)" stroke-width="1" opacity="1" d="M 682.5 163 L 683.5 165 L 682.5 163 Z " /><path fill="rgb(89,97,107)" stroke="rgb(89,97,107)" stroke-width="1" opacity="1" d="M 747.5 164 L 746.5 166 L 747.5 164 Z " /><path fill="rgb(89,97,107)" stroke="rgb(89,97,107)" stroke-width="1" opacity="1" d="M 685.5 167 L 686.5 169 L 685.5 167 Z " /><path fill="rgb(89,97,107)" stroke="rgb(89,97,107)" stroke-width="1" opacity="1" d="M 569.5 170 L 561.5 179 L 569.5 170 Z " /><path fill="rgb(89,97,107)" stroke="rgb(89,97,107)" stroke-width="1" opacity="1" d="M 688.5 171 L 689.5 173 L 688.5 171 Z " /><path fill="rgb(89,97,107)" stroke="rgb(89,97,107)" stroke-width="1" opacity="1" d="M 741.5 172 L 740.5 174 L 741.5 172 Z " /><path fill="rgb(89,97,107)" stroke="rgb(89,97,107)" stroke-width="1" opacity="1" d="M 739.5 175 L 738.5 177 L 739.5 175 Z " /><path fill="rgb(89,97,107)" stroke="rgb(89,97,107)" stroke-width="1" opacity="1" d="M 694.5 179 L 695.5 181 L 694.5 179 Z " /><path fill="rgb(89,97,107)" stroke="rgb(89,97,107)" stroke-width="1" opacity="1" d="M 735.5 180 L 734.5 182 L 735.5 180 Z " /><path fill="rgb(89,97,107)" stroke="rgb(89,97,107)" stroke-width="1" opacity="1" d="M 488.5 181 L 489 248.5 L 488 248.5 L 488.5 181 Z " /><path fill="rgb(89,97,107)" stroke="rgb(89,97,107)" stroke-width="1" opacity="1" d="M 696.5 182 L 697.5 184 L 696.5 182 Z " /><path fill="rgb(89,97,107)" stroke="rgb(89,97,107)" stroke-width="1" opacity="1" d="M 733.5 183 L 732.5 185 L 733.5 183 Z " /><path fill="rgb(89,97,107)" stroke="rgb(89,97,107)" stroke-width="1" opacity="1" d="M 427.5 217 L 430 218.5 L 425.5 224 L 429 219.5 Q 429.8 217.3 427.5 218 L 427.5 217 Z " /><path fill="rgb(89,97,107)" stroke="rgb(89,97,107)" stroke-width="1" opacity="1" d="M 421.5 226 L 408.5 240 L 421.5 226 Z " /><path fill="rgb(89,97,107)" stroke="rgb(89,97,107)" stroke-width="1" opacity="1" d="M 398.5 248 L 397.5 250 L 398.5 248 Z " /><path fill="rgb(89,97,107)" stroke="rgb(89,97,107)" stroke-width="1" opacity="1" d="M 139.5 250 L 169 250.5 L 139.5 251 L 139.5 250 Z " /><path fill="rgb(89,97,107)" stroke="rgb(89,97,107)" stroke-width="1" opacity="1" d="M 293.5 250 L 395 250.5 L 293.5 251 L 293.5 250 Z " /><path fill="rgb(89,97,107)" stroke="rgb(89,97,107)" stroke-width="1" opacity="1" d="M 457.5 250 L 487 250.5 L 457.5 251 L 457.5 250 Z " /><path fill="rgb(89,97,107)" stroke="rgb(89,97,107)" stroke-width="1" opacity="1" d="M 701.5 250 L 729 250.5 L 701.5 251 L 701.5 250 Z " /><path fill="rgb(89,97,107)" stroke="rgb(89,97,107)" stroke-width="1" opacity="1" d="M 0.5 343 L 2.5 346 L 0.5 343 Z " /><path fill="rgb(251,251,251)" stroke="rgb(251,251,251)" stroke-width="1" opacity="1" d="M 69 78 L 214.5 78 L 239 102.5 L 240 106.5 L 238.5 108 L 170 108 L 170 248.5 L 168.5 250 L 139.5 250 L 138 248.5 L 138 108.5 L 137.5 108 L 98.5 108 L 69 79.5 L 69 78 Z " /><path fill="rgb(251,251,251)" stroke="rgb(251,251,251)" stroke-width="1" opacity="1" d="M 312.5 78 L 429 78.5 L 422 84 Q 423.1 86.7 420.5 86 Q 413.7 95.1 404 100 Q 405.1 102.7 402.5 102 L 396.5 108 L 291.5 108 L 290 109.5 L 290 218 L 426.5 218 L 427.5 220 L 424.5 222 L 394.5 250 L 293.5 250 L 259 216.5 L 258 214.5 L 258 123.5 Q 265.9 120.9 269.5 114 L 274 112 Q 272.9 109.3 275.5 110 L 312.5 78 Z " /><path fill="rgb(251,251,251)" stroke="rgb(251,251,251)" stroke-width="1" opacity="1" d="M 487.5 78 L 612.5 78 L 613 79.5 L 598 94.5 L 598 96 L 596 96 L 596 98 L 594 98 L 594 100 Q 591.3 98.9 592 101.5 L 585.5 108 L 488 108 L 488 148 L 587.5 148 L 588 150 L 586 150 L 586 152 L 584 152 L 584 154 L 582 154 L 582 156 Q 579.3 154.9 580 157.5 L 560.5 178 L 489.5 178 L 488 179.5 L 488 248.5 L 486.5 250 L 457.5 250 L 456 248.5 L 456 106.5 L 457 104 L 466 98 Q 464.9 95.3 467.5 96 Q 474.3 86.9 484 82 Q 482.9 79.3 485.5 80 L 487.5 78 Z " /><path fill="rgb(251,251,251)" stroke="rgb(251,251,251)" stroke-width="1" opacity="1" d="M 622 78 L 657.5 78 L 660 80.5 L 714.5 150 L 721 144.5 L 773.5 78 L 808.5 78 L 809 79.5 L 731 184.5 L 730 187.5 L 730 248.5 L 728.5 250 L 701.5 250 L 700 248.5 L 700 184.5 L 634 96.5 L 632 90.5 Q 624.5 85.9 622 78 Z " /><path fill="rgb(88,96,107)" stroke="rgb(88,96,107)" stroke-width="1" opacity="1" d="M 3.5 0 L 904 0.5 L 3.5 1 L 1 3.5 L 1 342.5 L 3.5 345 L 904 345.5 L 3.5 346 L 0 342.5 L 0 3.5 L 3.5 0 Z " /><path fill="rgb(88,96,107)" stroke="rgb(88,96,107)" stroke-width="1" opacity="1" d="M 629.5 90 L 630.5 92 L 629.5 90 Z " /><path fill="rgb(88,96,107)" stroke="rgb(88,96,107)" stroke-width="1" opacity="1" d="M 457.5 102 L 456.5 104 L 457.5 102 Z " /></svg>